# xmcd
#
# Track frame offsets: 
#        150
#        13277
#        25230
#        38055
#        46720
#        65755
#        77505
#        88282
#        107275
#        119650
#        132987
#        145480
#
# Disc length: 2090 seconds
#
# Revision: 0
# Processed by: cddbd v1.5PL3 Copyright (c) Steve Scherf et al.
# Submitted via: ExactAudioCopy v0.95a5
#
DISCID=a308280c
DTITLE=Various Artist - Country Classics (Disk 3)
DYEAR=1999
DGENRE=Country
TTITLE0=Moe Bandy/Rodeo Romeo
TTITLE1=Dolly Parton/Two Little Orphans
TTITLE2=Johnny Russell/Crystal Chandeliers
TTITLE3=Jimmy Dean/Big Bad John
TTITLE4=Tanya Tucker/Delta Dawn
TTITLE5=Faron Young/Wine Me Up
TTITLE6=Osmond Brothers/Gonna Be A Heartache Tonight
TTITLE7=Bertie Higging/Key Largo
TTITLE8=Patty Loveless/Lonely Days, Lonely Nights
TTITLE9=Charlie Rich/Behind Closed Doors
TTITLE10=Lyn Anderson/Rose Garden
TTITLE11=Porter Wagoner/Ole Slewfoot
EXTD=
EXTT0=
EXTT1=
EXTT2=
EXTT3=
EXTT4=
EXTT5=
EXTT6=
EXTT7=
EXTT8=
EXTT9=
EXTT10=
EXTT11=
PLAYORDER=
